{
  "accessors": [
    {
      "bufferView": 2,
      "componentType": 5126,
      "count": 12914,
      "max": [
        0.074638232588768,
        0.015263006091117859,
        0.19308988749980927
      ],
      "min": [
        -0.11510627716779709,
        -0.030513036996126175,
        -0.08014164865016937
      ],
      "type": "VEC3"
    },
    {
      "bufferView": 2,
      "byteOffset": 154968,
      "componentType": 5126,
      "count": 12914,
      "max": [
        0.9997969269752502,
        0.9999697804450989,
        0.9982845783233643
      ],
      "min": [
        -0.999797523021698,
        -0.999131977558136,
        -0.9995156526565552
      ],
      "type": "VEC3"
    },
    {
      "bufferView": 1,
      "componentType": 5126,
      "count": 12914,
      "max": [
        0.9971709847450256,
        0.9999865293502808
      ],
      "min": [
        0.0008961907005868852,
        0.0023990271147340536
      ],
      "type": "VEC2"
    },
    {
      "bufferView": 1,
      "byteOffset": 103312,
      "componentType": 5126,
      "count": 12914,
      "max": [
        0.9971709847450256,
        0.9999865293502808
      ],
      "min": [
        0.0008961907005868852,
        0.0023990271147340536
      ],
      "type": "VEC2"
    },
    {
      "bufferView": 1,
      "byteOffset": 206624,
      "componentType": 5126,
      "count": 12914,
      "max": [
        0.9971709847450256,
        0.9999865293502808
      ],
      "min": [
        0.0008961907005868852,
        0.0023990271147340536
      ],
      "type": "VEC2"
    },
    {
      "bufferView": 1,
      "byteOffset": 309936,
      "componentType": 5126,
      "count": 12914,
      "max": [
        0.9971709847450256,
        0.9999865293502808
      ],
      "min": [
        0.0008961907005868852,
        0.0023990271147340536
      ],
      "type": "VEC2"
    },
    {
      "bufferView": 1,
      "byteOffset": 413248,
      "componentType": 5126,
      "count": 12914,
      "max": [
        0.9971709847450256,
        0.9999865293502808
      ],
      "min": [
        0.0008961907005868852,
        0.0023990271147340536
      ],
      "type": "VEC2"
    },
    {
      "bufferView": 0,
      "componentType": 5125,
      "count": 67830,
      "type": "SCALAR"
    }
  ],
  "asset": {
    "extras": {
      "author": "sadfsdfsf (https://sketchfab.com/sadfsdfsf)",
      "license": "CC-BY-NC-SA-4.0 (http://creativecommons.org/licenses/by-nc-sa/4.0/)",
      "source": "https://sketchfab.com/3d-models/peeled-banana-laying-down-764079c328354a68badd57818214fdd1",
      "title": "Peeled Banana Laying Down"
    },
    "generator": "Sketchfab-14.35.0",
    "version": "2.0"
  },
  "bufferViews": [
    {
      "buffer": 0,
      "byteLength": 271320,
      "name": "floatBufferViews",
      "target": 34963
    },
    {
      "buffer": 0,
      "byteLength": 516560,
      "byteOffset": 271320,
      "byteStride": 8,
      "name": "floatBufferViews",
      "target": 34962
    },
    {
      "buffer": 0,
      "byteLength": 309936,
      "byteOffset": 787880,
      "byteStride": 12,
      "name": "floatBufferViews",
      "target": 34962
    }
  ],
  "buffers": [
    {
      "byteLength": 1097816,
      "uri": "scene.bin"
    }
  ],
  "extensionsUsed": [
    "KHR_materials_unlit"
  ],
  "images": [
    {
      "uri": "textures/material_0_baseColor.jpeg"
    }
  ],
  "materials": [
    {
      "extensions": {
        "KHR_materials_unlit": {}
      },
      "name": "material_0",
      "pbrMetallicRoughness": {
        "baseColorTexture": {
          "index": 0
        },
        "metallicFactor": 0.0
      }
    }
  ],
  "meshes": [
    {
      "name": "Object_0",
      "primitives": [
        {
          "attributes": {
            "NORMAL": 1,
            "POSITION": 0,
            "TEXCOORD_0": 2,
            "TEXCOORD_1": 3,
            "TEXCOORD_2": 4,
            "TEXCOORD_3": 5,
            "TEXCOORD_4": 6
          },
          "indices": 7,
          "material": 0,
          "mode": 4
        }
      ]
    }
  ],
  "nodes": [
    {
      "children": [
        1
      ],
      "matrix": [
        1.0,
        0.0,
        0.0,
        0.0,
        0.0,
        2.220446049250313e-16,
        -1.0,
        0.0,
        0.0,
        1.0,
        2.220446049250313e-16,
        0.0,
        0.0,
        0.0,
        0.0,
        1.0
      ],
      "name": "Sketchfab_model"
    },
    {
      "children": [
        2
      ],
      "name": "root"
    },
    {
      "children": [
        3
      ],
      "matrix": [
        1.0,
        0.0,
        0.0,
        0.0,
        0.0,
        2.220446049250313e-16,
        1.0,
        0.0,
        0.0,
        -1.0,
        2.220446049250313e-16,
        0.0,
        0.0,
        0.0,
        0.0,
        1.0
      ],
      "name": "GLTF_SceneRootNode"
    },
    {
      "children": [
        4
      ],
      "name": "_0"
    },
    {
      "mesh": 0,
      "name": "Object_4"
    }
  ],
  "samplers": [
    {
      "magFilter": 9729,
      "minFilter": 9987,
      "wrapS": 10497,
      "wrapT": 10497
    }
  ],
  "scene": 0,
  "scenes": [
    {
      "name": "Sketchfab_Scene",
      "nodes": [
        0
      ]
    }
  ],
  "textures": [
    {
      "sampler": 0,
      "source": 0
    }
  ]
}
