{
  "accessors": [
    {
      "bufferView": 2,
      "componentType": 5126,
      "count": 65532,
      "max": [
        422.8471984863281,
        -3.113445997238159,
        394.32769775390625
      ],
      "min": [
        -399.9411926269531,
        -379.4466857910156,
        -498.34710693359375
      ],
      "type": "VEC3"
    },
    {
      "bufferView": 2,
      "byteOffset": 786384,
      "componentType": 5126,
      "count": 65532,
      "max": [
        0.9999700784683228,
        0.9992565512657166,
        0.9999833106994629
      ],
      "min": [
        -0.9999487996101379,
        -0.9999994039535522,
        -0.9999520182609558
      ],
      "type": "VEC3"
    },
    {
      "bufferView": 1,
      "componentType": 5126,
      "count": 65532,
      "max": [
        0.999767005443573,
        0.9998639822006226
      ],
      "min": [
        0.0001250000059371814,
        0.0002479999966453761
      ],
      "type": "VEC2"
    },
    {
      "bufferView": 0,
      "componentType": 5125,
      "count": 211905,
      "type": "SCALAR"
    },
    {
      "bufferView": 2,
      "byteOffset": 1572768,
      "componentType": 5126,
      "count": 65532,
      "max": [
        397.04949951171875,
        -3.0334320068359375,
        379.448486328125
      ],
      "min": [
        -401.2569885253906,
        -393.36669921875,
        -463.0624084472656
      ],
      "type": "VEC3"
    },
    {
      "bufferView": 2,
      "byteOffset": 2359152,
      "componentType": 5126,
      "count": 65532,
      "max": [
        0.9999700784683228,
        0.9999385476112366,
        0.9999896883964539
      ],
      "min": [
        -0.9999467730522156,
        -0.9999986886978149,
        -0.9999520182609558
      ],
      "type": "VEC3"
    },
    {
      "bufferView": 1,
      "byteOffset": 524256,
      "componentType": 5126,
      "count": 65532,
      "max": [
        0.9997739791870117,
        0.9998379945755005
      ],
      "min": [
        0.00022200000239536166,
        0.00020900000527035445
      ],
      "type": "VEC2"
    },
    {
      "bufferView": 0,
      "byteOffset": 847620,
      "componentType": 5125,
      "count": 195900,
      "type": "SCALAR"
    },
    {
      "bufferView": 2,
      "byteOffset": 3145536,
      "componentType": 5126,
      "count": 65532,
      "max": [
        422.1809997558594,
        -3.007791042327881,
        395.5911865234375
      ],
      "min": [
        -394.1846923828125,
        -392.64959716796875,
        -497.3492126464844
      ],
      "type": "VEC3"
    },
    {
      "bufferView": 2,
      "byteOffset": 3931920,
      "componentType": 5126,
      "count": 65532,
      "max": [
        0.9999796748161316,
        0.9999336004257202,
        0.9999884963035583
      ],
      "min": [
        -0.9998601675033569,
        -0.9999999403953552,
        -0.9999714493751526
      ],
      "type": "VEC3"
    },
    {
      "bufferView": 1,
      "byteOffset": 1048512,
      "componentType": 5126,
      "count": 65532,
      "max": [
        0.9998030066490173,
        0.9998670220375061
      ],
      "min": [
        0.00013099999341648072,
        0.0002010000025620684
      ],
      "type": "VEC2"
    },
    {
      "bufferView": 0,
      "byteOffset": 1631220,
      "componentType": 5125,
      "count": 175278,
      "type": "SCALAR"
    },
    {
      "bufferView": 2,
      "byteOffset": 4718304,
      "componentType": 5126,
      "count": 65533,
      "max": [
        422.197509765625,
        -3.102797031402588,
        384.88629150390625
      ],
      "min": [
        -399.9411926269531,
        -393.36669921875,
        -498.38848876953125
      ],
      "type": "VEC3"
    },
    {
      "bufferView": 2,
      "byteOffset": 5504700,
      "componentType": 5126,
      "count": 65533,
      "max": [
        0.9999549388885498,
        0.9999493360519409,
        0.9999719262123108
      ],
      "min": [
        -0.999872088432312,
        -0.9999999403953552,
        -0.9999470710754395
      ],
      "type": "VEC3"
    },
    {
      "bufferView": 1,
      "byteOffset": 1572768,
      "componentType": 5126,
      "count": 65533,
      "max": [
        0.9998090267181396,
        0.9998649954795837
      ],
      "min": [
        0.0001340000017080456,
        0.0004769999941345304
      ],
      "type": "VEC2"
    },
    {
      "bufferView": 0,
      "byteOffset": 2332332,
      "componentType": 5125,
      "count": 140625,
      "type": "SCALAR"
    },
    {
      "bufferView": 2,
      "byteOffset": 6291096,
      "componentType": 5126,
      "count": 65534,
      "max": [
        422.96240234375,
        -3.007791042327881,
        395.5736083984375
      ],
      "min": [
        -401.2569885253906,
        -391.793701171875,
        -498.0751953125
      ],
      "type": "VEC3"
    },
    {
      "bufferView": 2,
      "byteOffset": 7077504,
      "componentType": 5126,
      "count": 65534,
      "max": [
        0.9999714493751526,
        0.9999385476112366,
        0.9999884963035583
      ],
      "min": [
        -0.9999160170555115,
        -0.9999989867210388,
        -0.9999520182609558
      ],
      "type": "VEC3"
    },
    {
      "bufferView": 1,
      "byteOffset": 2097032,
      "componentType": 5126,
      "count": 65534,
      "max": [
        0.9998000264167786,
        0.9998599886894226
      ],
      "min": [
        0.00013000000035390258,
        0.00027600000612437725
      ],
      "type": "VEC2"
    },
    {
      "bufferView": 0,
      "byteOffset": 2894832,
      "componentType": 5125,
      "count": 112116,
      "type": "SCALAR"
    },
    {
      "bufferView": 2,
      "byteOffset": 7863912,
      "componentType": 5126,
      "count": 65534,
      "max": [
        423.01141357421875,
        -3.0213708877563477,
        394.5945129394531
      ],
      "min": [
        -398.14599609375,
        -392.76971435546875,
        -498.19488525390625
      ],
      "type": "VEC3"
    },
    {
      "bufferView": 2,
      "byteOffset": 8650320,
      "componentType": 5126,
      "count": 65534,
      "max": [
        0.999946117401123,
        0.9999103546142578,
        0.9999896883964539
      ],
      "min": [
        -0.9999328255653381,
        -0.9999991655349731,
        -0.9999520182609558
      ],
      "type": "VEC3"
    },
    {
      "bufferView": 1,
      "byteOffset": 2621304,
      "componentType": 5126,
      "count": 65534,
      "max": [
        0.9997820258140564,
        0.9998739957809448
      ],
      "min": [
        0.0001289999927394092,
        0.0004140000091865659
      ],
      "type": "VEC2"
    },
    {
      "bufferView": 0,
      "byteOffset": 3343296,
      "componentType": 5125,
      "count": 93123,
      "type": "SCALAR"
    },
    {
      "bufferView": 2,
      "byteOffset": 9436728,
      "componentType": 5126,
      "count": 65532,
      "max": [
        423.01141357421875,
        -3.149977922439575,
        395.21649169921875
      ],
      "min": [
        -401.1142883300781,
        -393.36669921875,
        -498.40399169921875
      ],
      "type": "VEC3"
    },
    {
      "bufferView": 2,
      "byteOffset": 10223112,
      "componentType": 5126,
      "count": 65532,
      "max": [
        0.9999552369117737,
        0.9999103546142578,
        0.9999884963035583
      ],
      "min": [
        -0.9999022483825684,
        -0.9999990463256836,
        -0.9999517798423767
      ],
      "type": "VEC3"
    },
    {
      "bufferView": 1,
      "byteOffset": 3145576,
      "componentType": 5126,
      "count": 65532,
      "max": [
        0.9998080134391785,
        0.9998689889907837
      ],
      "min": [
        0.0001429999974789098,
        0.00038400001358240843
      ],
      "type": "VEC2"
    },
    {
      "bufferView": 0,
      "byteOffset": 3715788,
      "componentType": 5125,
      "count": 80928,
      "type": "SCALAR"
    },
    {
      "bufferView": 2,
      "byteOffset": 11009496,
      "componentType": 5126,
      "count": 65533,
      "max": [
        423.01141357421875,
        -3.0460898876190186,
        391.4088134765625
      ],
      "min": [
        -398.22369384765625,
        -393.36669921875,
        -498.40399169921875
      ],
      "type": "VEC3"
    },
    {
      "bufferView": 2,
      "byteOffset": 11795892,
      "componentType": 5126,
      "count": 65533,
      "max": [
        0.9999527931213379,
        0.9999493360519409,
        0.9999719262123108
      ],
      "min": [
        -0.9999022483825684,
        -0.9999989867210388,
        -0.9999517798423767
      ],
      "type": "VEC3"
    },
    {
      "bufferView": 1,
      "byteOffset": 3669832,
      "componentType": 5126,
      "count": 65533,
      "max": [
        0.9998080134391785,
        0.999871015548706
      ],
      "min": [
        0.0001320000010309741,
        0.00046300000394694507
      ],
      "type": "VEC2"
    },
    {
      "bufferView": 0,
      "byteOffset": 4039500,
      "componentType": 5125,
      "count": 72849,
      "type": "SCALAR"
    },
    {
      "bufferView": 2,
      "byteOffset": 12582288,
      "componentType": 5126,
      "count": 65534,
      "max": [
        422.989013671875,
        -3.0334320068359375,
        391.9236145019531
      ],
      "min": [
        -400.9552001953125,
        -392.5508117675781,
        -498.3544006347656
      ],
      "type": "VEC3"
    },
    {
      "bufferView": 2,
      "byteOffset": 13368696,
      "componentType": 5126,
      "count": 65534,
      "max": [
        0.9999998807907104,
        0.9999735951423645,
        0.9999719262123108
      ],
      "min": [
        -0.9997571706771851,
        -0.9999991655349731,
        -0.9998593330383301
      ],
      "type": "VEC3"
    },
    {
      "bufferView": 1,
      "byteOffset": 4194096,
      "componentType": 5126,
      "count": 65534,
      "max": [
        0.9997990131378174,
        0.999871015548706
      ],
      "min": [
        0.00013000000035390258,
        0.00023700000019744039
      ],
      "type": "VEC2"
    },
    {
      "bufferView": 0,
      "byteOffset": 4330896,
      "componentType": 5125,
      "count": 69540,
      "type": "SCALAR"
    },
    {
      "bufferView": 2,
      "byteOffset": 14155104,
      "componentType": 5126,
      "count": 4533,
      "max": [
        418.44000244140625,
        -3.5100080966949463,
        356.32281494140625
      ],
      "min": [
        -366.7135925292969,
        -385.43560791015625,
        -498.18951416015625
      ],
      "type": "VEC3"
    },
    {
      "bufferView": 2,
      "byteOffset": 14209500,
      "componentType": 5126,
      "count": 4533,
      "max": [
        0.9999714493751526,
        0.9998852610588074,
        0.9999833106994629
      ],
      "min": [
        -0.9999022483825684,
        -0.9999801516532898,
        -0.9993347525596619
      ],
      "type": "VEC3"
    },
    {
      "bufferView": 1,
      "byteOffset": 4718368,
      "componentType": 5126,
      "count": 4533,
      "max": [
        0.995281994342804,
        0.9965429902076721
      ],
      "min": [
        0.00012700000661425292,
        0.0017869999865069985
      ],
      "type": "VEC2"
    },
    {
      "bufferView": 0,
      "byteOffset": 4609056,
      "componentType": 5125,
      "count": 4641,
      "type": "SCALAR"
    }
  ],
  "asset": {
    "extras": {
      "author": "Moshe Caine (https://sketchfab.com/mosheca)",
      "license": "CC-BY-4.0 (http://creativecommons.org/licenses/by/4.0/)",
      "source": "https://sketchfab.com/3d-models/fruit-decay-743de6a371b04c7993e3c263e04cfc06",
      "title": "Fruit Decay"
    },
    "generator": "Sketchfab-12.68.0",
    "version": "2.0"
  },
  "bufferViews": [
    {
      "buffer": 0,
      "byteLength": 4627620,
      "name": "floatBufferViews",
      "target": 34963
    },
    {
      "buffer": 0,
      "byteLength": 4754632,
      "byteOffset": 4627620,
      "byteStride": 8,
      "name": "floatBufferViews",
      "target": 34962
    },
    {
      "buffer": 0,
      "byteLength": 14263896,
      "byteOffset": 9382252,
      "byteStride": 12,
      "name": "floatBufferViews",
      "target": 34962
    }
  ],
  "buffers": [
    {
      "byteLength": 23646148,
      "uri": "scene.bin"
    }
  ],
  "images": [
    {
      "uri": "textures/fruit_baseColor.jpeg"
    }
  ],
  "materials": [
    {
      "doubleSided": true,
      "name": "fruit",
      "pbrMetallicRoughness": {
        "baseColorTexture": {
          "index": 0
        },
        "metallicFactor": 0.15371437778547933
      }
    }
  ],
  "meshes": [
    {
      "name": "Object_0",
      "primitives": [
        {
          "attributes": {
            "NORMAL": 1,
            "POSITION": 0,
            "TEXCOORD_0": 2
          },
          "indices": 3,
          "material": 0,
          "mode": 4
        }
      ]
    },
    {
      "name": "Object_1",
      "primitives": [
        {
          "attributes": {
            "NORMAL": 5,
            "POSITION": 4,
            "TEXCOORD_0": 6
          },
          "indices": 7,
          "material": 0,
          "mode": 4
        }
      ]
    },
    {
      "name": "Object_2",
      "primitives": [
        {
          "attributes": {
            "NORMAL": 9,
            "POSITION": 8,
            "TEXCOORD_0": 10
          },
          "indices": 11,
          "material": 0,
          "mode": 4
        }
      ]
    },
    {
      "name": "Object_3",
      "primitives": [
        {
          "attributes": {
            "NORMAL": 13,
            "POSITION": 12,
            "TEXCOORD_0": 14
          },
          "indices": 15,
          "material": 0,
          "mode": 4
        }
      ]
    },
    {
      "name": "Object_4",
      "primitives": [
        {
          "attributes": {
            "NORMAL": 17,
            "POSITION": 16,
            "TEXCOORD_0": 18
          },
          "indices": 19,
          "material": 0,
          "mode": 4
        }
      ]
    },
    {
      "name": "Object_5",
      "primitives": [
        {
          "attributes": {
            "NORMAL": 21,
            "POSITION": 20,
            "TEXCOORD_0": 22
          },
          "indices": 23,
          "material": 0,
          "mode": 4
        }
      ]
    },
    {
      "name": "Object_6",
      "primitives": [
        {
          "attributes": {
            "NORMAL": 25,
            "POSITION": 24,
            "TEXCOORD_0": 26
          },
          "indices": 27,
          "material": 0,
          "mode": 4
        }
      ]
    },
    {
      "name": "Object_7",
      "primitives": [
        {
          "attributes": {
            "NORMAL": 29,
            "POSITION": 28,
            "TEXCOORD_0": 30
          },
          "indices": 31,
          "material": 0,
          "mode": 4
        }
      ]
    },
    {
      "name": "Object_8",
      "primitives": [
        {
          "attributes": {
            "NORMAL": 33,
            "POSITION": 32,
            "TEXCOORD_0": 34
          },
          "indices": 35,
          "material": 0,
          "mode": 4
        }
      ]
    },
    {
      "name": "Object_9",
      "primitives": [
        {
          "attributes": {
            "NORMAL": 37,
            "POSITION": 36,
            "TEXCOORD_0": 38
          },
          "indices": 39,
          "material": 0,
          "mode": 4
        }
      ]
    }
  ],
  "nodes": [
    {
      "children": [
        1
      ],
      "matrix": [
        0.9999992251396179,
        0.0012384745059534907,
        -1.377242824673858e-05,
        0.0,
        0.0012384753208607435,
        -0.9999992251396179,
        6.094124546485169e-05,
        0.0,
        -1.3696943824470509e-05,
        -6.0958253015774844e-05,
        -1.0,
        0.0,
        0.2447545975446701,
        -249.61137390136722,
        146.79238891601557,
        1.0
      ],
      "name": "Sketchfab_model"
    },
    {
      "children": [
        2,
        3,
        4,
        5,
        6,
        7,
        8,
        9,
        10,
        11
      ],
      "name": "fruit_Reduced_Reduced.obj.cleaner.materialmerger.gles"
    },
    {
      "mesh": 0,
      "name": "Object_2"
    },
    {
      "mesh": 1,
      "name": "Object_3"
    },
    {
      "mesh": 2,
      "name": "Object_4"
    },
    {
      "mesh": 3,
      "name": "Object_5"
    },
    {
      "mesh": 4,
      "name": "Object_6"
    },
    {
      "mesh": 5,
      "name": "Object_7"
    },
    {
      "mesh": 6,
      "name": "Object_8"
    },
    {
      "mesh": 7,
      "name": "Object_9"
    },
    {
      "mesh": 8,
      "name": "Object_10"
    },
    {
      "mesh": 9,
      "name": "Object_11"
    }
  ],
  "samplers": [
    {
      "magFilter": 9729,
      "minFilter": 9987,
      "wrapS": 10497,
      "wrapT": 10497
    }
  ],
  "scene": 0,
  "scenes": [
    {
      "name": "Sketchfab_Scene",
      "nodes": [
        0
      ]
    }
  ],
  "textures": [
    {
      "sampler": 0,
      "source": 0
    }
  ]
}
